<svg width="25" height="24" viewBox="0 0 25 24" fill="none" xmlns="http://www.w3.org/2000/svg">
<g clip-path="url(#clip0)">
<path d="M3.66681 13.7865V18.308C3.66681 20.8218 5.88881 22.946 8.51889 22.946H10.3283C11.0182 22.946 11.5773 22.3868 11.5773 21.697V13.7865H14.5009L14.5613 21.7066C14.5667 22.3927 15.1242 22.946 15.8103 22.946H17.3116C19.8892 22.946 21.9859 20.8652 21.9859 18.308V13.7865H23.471C23.976 13.7865 24.4319 13.4821 24.6247 13.0154C24.8183 12.5487 24.7113 12.0116 24.3541 11.6544L14.4867 1.78538C14.015 1.31369 13.3876 1.05389 12.721 1.05389C12.0532 1.05389 11.4262 1.31408 10.9541 1.78584L7.02207 5.71785L3.69345 9.04685C3.67929 8.96694 3.69345 9.13764 3.69345 9.04685L1.08587 11.6544C0.72863 12.0117 0.621617 12.5487 0.815281 13.0154C1.00849 13.4821 1.4644 13.7865 1.96938 13.7865H3.66681Z" fill="#6A6AC0"/>
</g>
<defs>
<clipPath id="clip0">
<rect width="24" height="24" fill="white" transform="translate(0.719971)"/>
</clipPath>
</defs>
</svg>
