<svg width="25" height="24" viewBox="0 0 25 24" fill="none" xmlns="http://www.w3.org/2000/svg">
<path d="M12.2178 6.69989C10.5264 6.69989 9.15042 8.07595 9.15042 9.7673C9.15042 11.4586 10.5264 12.8347 12.2178 12.8347C13.9092 12.8347 15.2852 11.4586 15.2852 9.7673C15.2852 8.07595 13.9092 6.69989 12.2178 6.69989Z" fill="#6A6AC0"/>
<path d="M19.3955 2.97309C17.4783 1.05586 14.9292 0 12.2178 0C9.50648 0 6.95738 1.05586 5.04019 2.97309C3.12291 4.89038 2.06705 7.43944 2.06705 10.1507C2.06705 15.6357 7.2533 20.1978 10.0395 22.6488C10.4267 22.9894 10.761 23.2835 11.0273 23.5322C11.3611 23.8441 11.7894 24 12.2178 24C12.6461 24 13.0745 23.844 13.4082 23.5323C13.6746 23.2835 14.0089 22.9894 14.3961 22.6488C17.1823 20.1979 22.3686 15.6358 22.3686 10.1508C22.3686 7.43944 21.3127 4.89038 19.3955 2.97309ZM12.2178 14.2405C9.75122 14.2405 7.74455 12.2338 7.74455 9.7672C7.74455 7.30059 9.75122 5.29392 12.2178 5.29392C14.6844 5.29392 16.6911 7.30059 16.6911 9.7672C16.6911 12.2338 14.6844 14.2405 12.2178 14.2405Z" fill="#6A6AC0"/>
</svg>
