<svg width="25" height="24" viewBox="0 0 25 24" fill="none" xmlns="http://www.w3.org/2000/svg">
<g clip-path="url(#clip0)">
<path d="M12.3193 11.5609C13.9075 11.5609 15.2828 10.9912 16.4065 9.86733C17.5302 8.74362 18.0999 7.36868 18.0999 5.78025C18.0999 4.19237 17.5302 2.81725 16.4063 1.69317C15.2824 0.569639 13.9073 0 12.3193 0C10.7308 0 9.35588 0.569639 8.23217 1.69335C7.10846 2.81707 6.53864 4.19218 6.53864 5.78025C6.53864 7.36868 7.10846 8.7438 8.23235 9.86751C9.35625 10.991 10.7314 11.5609 12.3193 11.5609Z" fill="#6A6AC0"/>
<path d="M22.4338 18.4547C22.4014 17.9871 22.3358 17.477 22.2393 16.9383C22.1419 16.3955 22.0165 15.8825 21.8663 15.4136C21.7112 14.9289 21.5003 14.4502 21.2396 13.9916C20.9689 13.5155 20.6511 13.1009 20.2944 12.7598C19.9214 12.403 19.4647 12.116 18.9366 11.9067C18.4104 11.6985 17.8272 11.5931 17.2034 11.5931C16.9584 11.5931 16.7214 11.6936 16.2639 11.9915C15.9822 12.1752 15.6528 12.3876 15.2852 12.6225C14.9708 12.8228 14.5449 13.0105 14.0188 13.1804C13.5056 13.3465 12.9845 13.4307 12.4701 13.4307C11.9558 13.4307 11.4348 13.3465 10.921 13.1804C10.3955 13.0107 9.96964 12.823 9.65561 12.6227C9.29142 12.39 8.96183 12.1775 8.676 11.9913C8.21897 11.6934 7.98185 11.5929 7.73686 11.5929C7.11284 11.5929 6.52983 11.6985 6.00377 11.9069C5.47606 12.1158 5.01922 12.4028 4.64587 12.76C4.28936 13.1013 3.97131 13.5157 3.70104 13.9916C3.44049 14.4502 3.22955 14.9287 3.07428 15.4137C2.92431 15.8827 2.79889 16.3955 2.70148 16.9383C2.60498 17.4762 2.53943 17.9865 2.50702 18.4553C2.47516 18.9145 2.45905 19.3911 2.45905 19.8725C2.45905 21.1253 2.8573 22.1395 3.64263 22.8875C4.41827 23.6256 5.44457 24.0001 6.69261 24.0001H18.2487C19.4968 24.0001 20.5227 23.6258 21.2985 22.8875C22.084 22.1401 22.4823 21.1257 22.4823 19.8723C22.4821 19.3888 22.4658 18.9118 22.4338 18.4547Z" fill="#6A6AC0"/>
</g>
<defs>
<clipPath id="clip0">
<rect width="23.9999" height="24" fill="white" transform="translate(0.490295)"/>
</clipPath>
</defs>
</svg>
